 <svg  version="1.0" xmlns="http://www.w3.org/2000/svg"  width="84.000000pt" height="86.000000pt" viewBox="0 0 84.000000 86.000000"  preserveAspectRatio="xMidYMid meet">  <g transform="translate(0.000000,86.000000) scale(0.050000,-0.050000)" fill="#55d133" stroke="none"> <path d="M578 1674 c-60 -46 -78 -112 -78 -293 l0 -181 -191 0 c-269 0 -288 -20 -291 -304 -4 -367 2 -376 285 -376 l197 0 0 -181 c0 -299 22 -318 354 -319 291 0 313 21 323 298 l7 202 194 0 c274 0 282 9 282 337 0 328 -13 343 -289 343 l-191 0 0 181 c0 181 -18 247 -78 293 -44 34 -480 34 -524 0z m423 -169 c14 -264 10 -295 -41 -301 -149 -17 -200 -105 -200 -343 l0 -161 -290 0 -290 0 0 162 0 162 245 -7 245 -6 6 254 5 255 160 0 c87 0 159 -7 160 -15z m499 -644 l0 -160 -245 -5 -245 -6 -6 -255 -5 -255 -160 0 -159 0 0 170 0 170 71 0 c134 0 212 151 184 358 -18 136 -7 142 296 142 l269 0 0 -159z"/> </g> </svg> 