 <svg  version="1.0" xmlns="http://www.w3.org/2000/svg"  width="300.000000pt" height="102.000000pt" viewBox="0 0 300.000000 102.000000"  preserveAspectRatio="xMidYMid meet">  <g transform="translate(0.000000,102.000000) scale(0.050000,-0.050000)" fill="#4c7b2d" stroke="none"> <path d="M593 1579 c-50 -39 -53 -52 -53 -210 l0 -169 -148 0 c-235 0 -272 -38 -272 -280 0 -242 37 -280 272 -280 l148 0 0 -160 c0 -155 32 -237 95 -241 415 -24 482 17 458 275 l-11 126 160 0 c229 0 258 32 258 276 0 256 -24 284 -251 284 l-167 0 12 98 c15 127 -6 234 -55 283 -59 59 -371 57 -446 -2z m363 -254 l6 -125 -58 0 c-103 0 -153 -80 -157 -247 -2 -78 -4 -149 -5 -157 -1 -8 -108 -12 -237 -10 l-235 6 0 129 0 129 200 0 200 0 6 206 5 206 135 -6 134 -6 6 -125z m394 -405 l0 -130 -195 7 -195 8 0 -181 c0 -246 1 -244 -152 -244 l-128 0 0 130 c0 128 1 130 54 130 100 0 146 69 146 222 0 208 -10 200 247 194 l223 -6 0 -130z"/> <path d="M5915 1485 c-4 -8 -6 -26 -4 -40 2 -14 5 -38 7 -55 1 -16 16 -30 33 -30 17 0 26 8 20 18 -6 10 0 23 14 29 14 5 3 11 -25 12 -40 1 -44 6 -20 21 27 17 27 19 0 20 -27 1 -27 3 0 20 18 12 20 20 6 20 -13 0 -27 -7 -31 -15z"/> <path d="M4630 1308 c-39 -40 -32 -106 15 -136 78 -49 158 87 83 142 -46 34 -58 33 -98 -6z"/> <path d="M1985 1258 c-421 -208 -121 -874 307 -680 160 73 226 222 98 222 -38 0 -70 -9 -70 -19 0 -98 -238 -139 -317 -54 -209 222 65 588 280 373 130 -130 238 -51 118 86 -101 114 -271 144 -416 72z"/> <path d="M4060 930 l0 -370 241 0 242 0 -7 65 -6 64 -165 -6 -165 -6 0 311 0 312 -70 0 -70 0 0 -370z"/> <path d="M5438 1285 c-2 -8 -4 -174 -5 -368 l-3 -354 65 -7 65 -8 0 94 c0 151 43 162 122 31 53 -89 78 -112 132 -122 111 -21 110 5 -8 161 l-112 150 103 105 c123 125 125 133 28 132 -67 -1 -85 -13 -165 -113 l-90 -113 -6 214 -5 213 -60 0 c-32 0 -60 -7 -61 -15z"/> <path d="M2553 1087 c-17 -17 -17 -322 0 -407 24 -121 176 -175 274 -99 44 35 53 37 53 10 0 -20 18 -31 50 -31 28 0 55 0 62 0 6 0 12 119 12 265 l0 265 -62 6 -62 7 0 -189 c0 -220 -33 -278 -136 -242 -53 19 -54 21 -60 223 l-5 205 -56 0 c-31 0 -62 -6 -70 -13z"/> <path d="M3118 1092 c-4 -5 -5 -129 -2 -275 l6 -267 64 0 63 0 -6 161 c-7 190 26 253 133 257 58 2 64 8 64 67 0 75 -73 91 -156 34 -40 -28 -44 -28 -44 0 0 28 -98 47 -122 23z"/> <path d="M3582 1072 c-43 -24 -100 -100 -101 -137 -2 -35 130 -14 154 25 32 50 108 52 152 3 54 -60 39 -77 -81 -89 -127 -13 -213 -64 -223 -133 -23 -161 155 -261 284 -160 41 32 53 35 53 13 0 -28 115 -60 127 -36 35 70 -22 450 -73 494 -64 55 -210 65 -292 20z m248 -292 c15 -25 -96 -140 -135 -140 -58 0 -107 55 -83 94 31 51 194 85 218 46z"/> <path d="M4620 831 l0 -271 50 0 c28 0 56 0 64 0 8 0 14 119 13 265 l-1 265 -63 6 -63 7 0 -272z"/> <path d="M4860 1095 c-1 -3 -2 -126 -3 -274 l-2 -269 58 0 c57 0 57 0 62 139 8 217 19 260 78 287 111 50 147 -8 147 -238 l0 -199 65 12 c36 7 66 14 67 15 31 29 -30 462 -69 494 -57 46 -167 49 -231 7 -42 -27 -48 -27 -59 0 -9 24 -111 47 -113 26z"/> </g> </svg> 